<?xml version="1.0" encoding="utf-8"?>
<!-- Generator: Adobe Illustrator 24.0.1, SVG Export Plug-In . SVG Version: 6.00 Build 0)  -->
<svg version="1.1" id="Calque_2" xmlns="http://www.w3.org/2000/svg" xmlns:xlink="http://www.w3.org/1999/xlink" x="0px" y="0px"
	 viewBox="0 0 150 150" style="enable-background:new 0 0 150 150;" xml:space="preserve">
<style type="text/css">
	.st0{fill:none;stroke:#000000;stroke-width:2;stroke-miterlimit:10;}
	.st1{fill:none;stroke:#000000;stroke-miterlimit:10;}
	.st2{stroke:#000000;stroke-miterlimit:10;}
</style>
<g>
	<path d="M73,15c24.3,0,44,20.6,44,46s-19.7,46-44,46S29,86.4,29,61S48.7,15,73,15 M73,13c-25.4,0-46,21.5-46,48s20.6,48,46,48
		s46-21.5,46-48S98.4,13,73,13L73,13z"/>
</g>
<path class="st0" d="M28,61h-4.8c0,28.7,22.3,52,49.8,52s49-23.3,49-52h-4"/>
<path class="st1" d="M28,61c4.6-6.2,24.7-36.1,45-37c19-0.8,38,23,45,37"/>
<path class="st1" d="M28,61c6.5-5.5,25.2-17.5,45.5-17.5c19,0,29,10,44.5,17.5"/>
<path class="st1" d="M118,60.6c0.5,7.9-24.4,37.9-44.7,37.4C54.5,97.5,38.5,74.5,28,61.4"/>
<path class="st1" d="M118,60.6c-1.5,9.9-31.5,24.9-45.5,23.9c-15-1.1-32-13-44.5-23.1"/>
<path class="st1" d="M42.5,26.5c-4,13-6,25-6,35s3,30,7,35"/>
<path class="st1" d="M103.5,26.5c4,13,6,25,6,35s-3,30-7,35"/>
<line class="st1" x1="73.5" y1="13.5" x2="73.5" y2="107.5"/>
<ellipse class="st2" cx="139.5" cy="96.5" rx="7" ry="4"/>
<path class="st0" d="M122,63c4,0,9,2,9,10c0,9.1-3,20,3,23"/>
<path class="st0" d="M47,105c0,6-2,30-17,30"/>
<path class="st0" d="M100,105c0,6,2,30,17,30"/>
<path class="st2" d="M65,113l0.1,14c0.5,6.2,4.3,11,8.9,11s8.4-4.8,8.9-11l0.1-14H65z M80.5,121c0,3-2.9,5.5-6.5,5.5
	s-6.5-2.5-6.5-5.5c0-3,2.9-5.5,6.5-5.5S80.5,118,80.5,121z"/>
</svg>
